# xmcd
#
# Track frame offsets: 
#        150
#        29850
#        53241
#        79167
#        98577
#        122156
#        155665
#        178011
#        196565
#        219761
#        236854
#
# Disc length: 3576 seconds
#
# Revision: 1
# Processed by: cddbd v1.5.2PL0 Copyright (c) Steve Scherf et al.
# Submitted via: ExactAudioCopy v1.1
#
DISCID=910df60b
DTITLE=Alabama Mike - Upset The Status Quo
DYEAR=2016
DGENRE=Blues
TTITLE0=Upset The Status Quo
TTITLE1=Identity Theft
TTITLE2=MISSISSIPPI
TTITLE3=Think
TTITLE4=Can't Stay Here Long
TTITLE5=Fight For Your Love
TTITLE6=Restraining Order
TTITLE7=Rock Me In Your Arms
TTITLE8=SSI Blues
TTITLE9=Somewhere Down The Line
TTITLE10=Take The Lord With You
EXTD=
EXTT0=
EXTT1=
EXTT2=
EXTT3=
EXTT4=
EXTT5=
EXTT6=
EXTT7=
EXTT8=
EXTT9=
EXTT10=
PLAYORDER=
